<svg xmlns="http://www.w3.org/2000/svg" xmlns:xlink="http://www.w3.org/1999/xlink" width="500" zoomAndPan="magnify" viewBox="0 0 375 374.999991" height="500" preserveAspectRatio="xMidYMid meet" version="1.0"><defs><g/><clipPath id="76db84a54a"><path d="M 5.609375 52.355469 L 353.609375 52.355469 L 353.609375 179 L 5.609375 179 Z M 5.609375 52.355469 " clip-rule="nonzero"/></clipPath></defs><path fill="#fefefe" d="M 141.722656 190.226562 C 166.324219 187.714844 195.589844 189.617188 220.003906 195.320312 C 234.21875 198.640625 257.042969 205.746094 264.03125 218.167969 C 263.992188 217.457031 263.84375 216.769531 263.574219 216.109375 C 264.003906 206.714844 264.46875 196.546875 264.945312 186.121094 C 264.929688 186.125 264.917969 186.125 264.90625 186.128906 C 265.28125 177.855469 265.664062 169.433594 266.039062 161.085938 C 264.710938 152.355469 248.617188 143.34375 223.898438 137.511719 C 199.644531 131.789062 170.546875 129.753906 146.0625 132.066406 C 119.050781 134.621094 100.464844 142.070312 93.613281 153.070312 C 93.417969 154.101562 93 156.597656 92.96875 159.078125 C 92.886719 165.125 92.773438 172.484375 92.632812 179.953125 C 92.59375 179.9375 92.558594 179.925781 92.519531 179.914062 C 92.292969 191.988281 92.042969 201.378906 91.796875 207.425781 C 99.714844 200.175781 114.4375 193.015625 141.722656 190.226562 " fill-opacity="1" fill-rule="nonzero"/><g clip-path="url(#76db84a54a)"><path fill="#fefefe" d="M 351.835938 132.265625 L 178.105469 52.667969 C 177.433594 52.359375 176.667969 52.359375 175.996094 52.667969 L 7.25 129.804688 C 6.269531 130.253906 5.632812 131.277344 5.621094 132.414062 C 5.609375 133.550781 6.226562 134.589844 7.195312 135.058594 L 87 173.886719 C 87.085938 168.890625 87.171875 163.535156 87.25 157.839844 C 87.300781 153.941406 88.101562 150.199219 88.136719 150.039062 L 88.246094 149.535156 L 88.503906 149.101562 C 93.882812 139.976562 108.144531 128.359375 145.558594 124.820312 C 170.59375 122.453125 200.339844 124.535156 225.128906 130.382812 C 241.703125 134.296875 269.796875 143.265625 271.746094 159.394531 L 271.777344 159.664062 L 271.765625 159.933594 C 271.480469 166.253906 271.195312 172.613281 270.90625 178.925781 L 351.9375 137.5 C 352.890625 137.011719 353.484375 135.976562 353.464844 134.847656 C 353.441406 133.71875 352.804688 132.710938 351.835938 132.265625 " fill-opacity="1" fill-rule="nonzero"/></g><path fill="#fefefe" d="M 51.285156 201.667969 L 45.917969 201.570312 L 47.011719 141.367188 L 52.382812 141.464844 L 51.285156 201.667969 " fill-opacity="1" fill-rule="nonzero"/><path fill="#fefefe" d="M 44.660156 209.011719 C 35.011719 222.007812 31.746094 239.765625 33.367188 261.210938 C 47.101562 272.785156 57.457031 272.386719 65.21875 262.800781 C 65.363281 221.480469 59.28125 200.953125 44.660156 209.011719 " fill-opacity="1" fill-rule="evenodd"/><path fill="#fefefe" d="M 42.335938 267.339844 L 41.203125 225.171875 L 37.175781 264.183594 C 38.964844 265.4375 40.667969 266.496094 42.335938 267.339844 " fill-opacity="1" fill-rule="evenodd"/><path fill="#fefefe" d="M 49.539062 244.152344 L 49.648438 262.054688 L 47.003906 238.65625 L 48.546875 268.472656 C 50.246094 268.980469 51.855469 269.265625 53.386719 269.382812 L 53.542969 269.359375 L 49.539062 244.152344 " fill-opacity="1" fill-rule="evenodd"/><path fill="#fefefe" d="M 56.371094 228.734375 L 56.765625 269.152344 C 57.796875 268.792969 58.808594 268.316406 59.777344 267.722656 L 60.75 248.1875 L 58.101562 246.863281 L 56.371094 228.734375 " fill-opacity="1" fill-rule="evenodd"/><path fill="#fefefe" d="M 50.535156 192.910156 C 56.097656 193.171875 60.386719 197.664062 60.117188 202.933594 C 59.867188 208.203125 55.140625 212.242188 49.578125 211.976562 C 44.019531 211.691406 39.707031 207.199219 39.976562 201.929688 C 40.246094 196.660156 44.953125 192.625 50.535156 192.910156 " fill-opacity="1" fill-rule="evenodd"/><g fill="#000000" fill-opacity="1"><g transform="translate(65.019857, 233.001672)"><g><path d="M 6.566406 2.933594 C 4.453125 2.933594 2.863281 2.398438 1.796875 1.332031 C 0.730469 0.261719 0.195312 -1.328125 0.195312 -3.441406 L 0.195312 -52.074219 C 0.195312 -54.1875 0.730469 -55.777344 1.796875 -56.84375 C 2.863281 -57.914062 4.453125 -58.445312 6.566406 -58.445312 L 17.828125 -58.445312 C 19.941406 -58.445312 21.53125 -57.914062 22.597656 -56.84375 C 23.664062 -55.777344 24.199219 -54.1875 24.199219 -52.074219 L 24.199219 -35.890625 L 21.265625 -35.890625 L 21.53125 -38.808594 L 22.394531 -38.730469 L 22.128906 -35.8125 L 22.128906 -38.742188 L 22.675781 -38.742188 L 22.675781 -35.8125 L 20.082031 -37.179688 L 28.839844 -53.757812 C 29.433594 -54.878906 30.027344 -55.753906 30.625 -56.390625 C 31.460938 -57.277344 32.542969 -57.863281 33.867188 -58.148438 C 34.800781 -58.347656 36.074219 -58.445312 37.6875 -58.445312 L 48.867188 -58.445312 C 51.226562 -58.445312 52.886719 -57.644531 53.84375 -56.046875 C 54.800781 -54.453125 54.710938 -52.574219 53.578125 -50.40625 L 41.21875 -26.9375 L 38.625 -28.304688 L 40.894531 -30.160156 C 41.960938 -28.855469 42.933594 -27.355469 43.808594 -25.664062 L 54.355469 -5.667969 C 55.433594 -3.605469 55.570312 -1.714844 54.769531 -0.0078125 C 54.269531 1.054688 53.472656 1.839844 52.378906 2.347656 C 51.539062 2.738281 50.550781 2.933594 49.414062 2.933594 L 38.859375 2.933594 C 36.292969 2.933594 34.308594 2.609375 32.902344 1.957031 C 31.246094 1.195312 29.902344 -0.257812 28.871094 -2.398438 L 22.535156 -15.539062 C 22.234375 -16.183594 21.882812 -16.789062 21.488281 -17.351562 L 21.492188 -17.355469 C 21.527344 -17.320312 21.570312 -17.292969 21.621094 -17.261719 C 21.742188 -17.195312 21.859375 -17.164062 21.972656 -17.164062 L 21.265625 -17.164062 L 21.265625 -20.09375 L 24.199219 -20.09375 L 24.199219 -3.441406 C 24.199219 -1.328125 23.664062 0.261719 22.597656 1.332031 C 21.53125 2.398438 19.941406 2.933594 17.828125 2.933594 Z M 6.566406 -2.933594 L 17.828125 -2.933594 C 18.214844 -2.933594 18.503906 -2.960938 18.699219 -3.011719 L 18.699219 -3.003906 C 18.617188 -2.960938 18.535156 -2.898438 18.453125 -2.816406 C 18.367188 -2.734375 18.304688 -2.652344 18.261719 -2.570312 L 18.253906 -2.566406 C 18.308594 -2.761719 18.335938 -3.054688 18.335938 -3.441406 L 18.335938 -23.027344 L 21.972656 -23.027344 C 22.863281 -23.027344 23.691406 -22.816406 24.453125 -22.398438 C 25.167969 -22.003906 25.777344 -21.449219 26.285156 -20.726562 C 26.878906 -19.882812 27.390625 -19 27.816406 -18.085938 L 34.152344 -4.949219 C 34.574219 -4.070312 34.976562 -3.542969 35.359375 -3.367188 C 35.984375 -3.078125 37.152344 -2.933594 38.859375 -2.933594 L 49.414062 -2.933594 C 49.6875 -2.933594 49.851562 -2.945312 49.910156 -2.972656 C 49.714844 -2.882812 49.566406 -2.722656 49.457031 -2.496094 C 49.417969 -2.410156 49.398438 -2.347656 49.40625 -2.304688 C 49.386719 -2.453125 49.308594 -2.660156 49.167969 -2.933594 L 38.601562 -22.96875 C 37.914062 -24.300781 37.164062 -25.460938 36.355469 -26.449219 L 35.125 -27.953125 L 48.378906 -53.117188 C 48.53125 -53.40625 48.613281 -53.609375 48.628906 -53.722656 C 48.601562 -53.515625 48.664062 -53.28125 48.816406 -53.027344 C 48.960938 -52.785156 49.136719 -52.625 49.339844 -52.542969 C 49.277344 -52.570312 49.121094 -52.582031 48.867188 -52.582031 L 37.6875 -52.582031 C 36.488281 -52.582031 35.621094 -52.527344 35.097656 -52.414062 C 34.992188 -52.390625 34.914062 -52.367188 34.863281 -52.339844 C 34.867188 -52.339844 34.878906 -52.351562 34.894531 -52.371094 C 34.660156 -52.121094 34.371094 -51.667969 34.023438 -51.015625 L 24.441406 -32.878906 L 21.996094 -32.878906 L 18.335938 -33.210938 L 18.335938 -52.074219 C 18.335938 -52.460938 18.308594 -52.753906 18.253906 -52.945312 L 18.261719 -52.945312 C 18.304688 -52.863281 18.367188 -52.78125 18.453125 -52.699219 C 18.535156 -52.617188 18.617188 -52.550781 18.699219 -52.507812 L 18.699219 -52.5 C 18.503906 -52.554688 18.214844 -52.582031 17.828125 -52.582031 L 6.566406 -52.582031 C 6.179688 -52.582031 5.890625 -52.554688 5.695312 -52.5 L 5.695312 -52.507812 C 5.777344 -52.550781 5.863281 -52.617188 5.945312 -52.699219 C 6.027344 -52.78125 6.089844 -52.863281 6.132812 -52.945312 L 6.140625 -52.945312 C 6.085938 -52.753906 6.058594 -52.460938 6.058594 -52.074219 L 6.058594 -3.441406 C 6.058594 -3.054688 6.085938 -2.761719 6.140625 -2.566406 L 6.132812 -2.570312 C 6.089844 -2.652344 6.027344 -2.734375 5.945312 -2.816406 C 5.863281 -2.898438 5.777344 -2.960938 5.695312 -3.003906 L 5.695312 -3.011719 C 5.890625 -2.960938 6.179688 -2.933594 6.566406 -2.933594 Z M 6.566406 -2.933594 "/></g></g></g><g fill="#000000" fill-opacity="1"><g transform="translate(111.854771, 233.001672)"><g><path d="M 2.265625 2.933594 C -0.167969 2.933594 -1.800781 2.132812 -2.636719 0.539062 C -3.300781 -0.730469 -3.328125 -2.328125 -2.714844 -4.25 L -2.703125 -4.296875 L 14.75 -53.675781 C 15.414062 -55.582031 16.390625 -56.882812 17.679688 -57.585938 C 18.742188 -58.160156 20.09375 -58.445312 21.738281 -58.445312 L 33.308594 -58.445312 C 35.035156 -58.445312 36.441406 -58.128906 37.523438 -57.5 C 38.785156 -56.761719 39.714844 -55.5 40.3125 -53.703125 L 57.808594 -4.339844 C 58.539062 -2.25 58.402344 -0.511719 57.402344 0.875 C 56.414062 2.246094 54.820312 2.933594 52.621094 2.933594 L 41.675781 2.933594 C 39.035156 2.933594 37.046875 2.472656 35.714844 1.554688 C 34.234375 0.539062 33.28125 -0.980469 32.863281 -3 L 35.730469 -3.597656 L 32.90625 -2.820312 L 31.808594 -6.808594 L 34.636719 -7.585938 L 34.636719 -4.652344 L 19.9375 -4.652344 L 19.9375 -7.585938 L 22.765625 -6.808594 L 21.671875 -2.820312 C 21.121094 -0.9375 20.234375 0.484375 19.011719 1.445312 C 17.75 2.4375 15.820312 2.933594 13.214844 2.933594 Z M 2.265625 -2.933594 L 13.214844 -2.933594 C 13.96875 -2.933594 14.578125 -2.980469 15.039062 -3.082031 C 15.195312 -3.113281 15.320312 -3.152344 15.410156 -3.1875 C 15.429688 -3.195312 15.441406 -3.203125 15.445312 -3.207031 C 15.429688 -3.195312 15.414062 -3.183594 15.390625 -3.164062 C 15.625 -3.351562 15.835938 -3.753906 16.015625 -4.371094 L 17.703125 -10.515625 L 36.875 -10.515625 L 38.585938 -4.285156 L 38.601562 -4.195312 C 38.703125 -3.710938 38.847656 -3.40625 39.035156 -3.277344 C 39.121094 -3.21875 39.328125 -3.15625 39.648438 -3.089844 C 40.175781 -2.984375 40.851562 -2.933594 41.675781 -2.933594 L 52.621094 -2.933594 C 52.890625 -2.933594 53.066406 -2.949219 53.152344 -2.976562 C 52.972656 -2.914062 52.804688 -2.773438 52.648438 -2.554688 C 52.484375 -2.332031 52.402344 -2.117188 52.402344 -1.914062 C 52.402344 -1.996094 52.363281 -2.152344 52.28125 -2.382812 L 34.75 -51.851562 C 34.652344 -52.140625 34.554688 -52.359375 34.460938 -52.5 C 34.449219 -52.515625 34.441406 -52.527344 34.433594 -52.535156 C 34.433594 -52.535156 34.4375 -52.53125 34.441406 -52.527344 C 34.472656 -52.496094 34.515625 -52.464844 34.566406 -52.433594 C 34.535156 -52.453125 34.453125 -52.476562 34.316406 -52.503906 C 34.050781 -52.554688 33.714844 -52.582031 33.308594 -52.582031 L 21.738281 -52.582031 C 21.085938 -52.582031 20.664062 -52.53125 20.476562 -52.425781 C 20.554688 -52.46875 20.617188 -52.515625 20.664062 -52.5625 C 20.671875 -52.570312 20.675781 -52.574219 20.675781 -52.574219 C 20.667969 -52.5625 20.65625 -52.546875 20.644531 -52.53125 C 20.527344 -52.359375 20.40625 -52.089844 20.277344 -51.722656 L 2.84375 -2.386719 L 0.078125 -3.363281 L 2.871094 -2.472656 C 2.769531 -2.144531 2.710938 -1.898438 2.703125 -1.730469 C 2.710938 -1.835938 2.660156 -1.988281 2.558594 -2.179688 C 2.347656 -2.585938 2.074219 -2.847656 1.734375 -2.96875 C 1.800781 -2.945312 1.980469 -2.933594 2.265625 -2.933594 Z M 23.847656 -24.746094 L 30.804688 -24.746094 L 30.804688 -21.816406 L 27.980469 -21.039062 L 26.25 -27.324219 L 26.242188 -27.359375 C 25.800781 -29.125 25.453125 -30.894531 25.207031 -32.664062 C 24.957031 -34.421875 24.804688 -35.894531 24.75 -37.078125 L 24.671875 -38.71875 L 27.601562 -38.859375 L 27.601562 -35.925781 L 26.820312 -35.925781 L 26.820312 -38.859375 L 29.75 -38.789062 L 29.710938 -37.148438 C 29.683594 -35.984375 29.589844 -34.546875 29.425781 -32.835938 C 29.253906 -31.019531 28.90625 -29.191406 28.390625 -27.355469 L 26.675781 -21.046875 L 23.847656 -21.816406 Z M 20.011719 -18.882812 L 22.746094 -28.941406 C 23.167969 -30.441406 23.449219 -31.925781 23.585938 -33.390625 C 23.738281 -34.964844 23.824219 -36.261719 23.847656 -37.289062 L 23.957031 -41.792969 L 30.398438 -41.792969 L 30.609375 -37.359375 C 30.65625 -36.351562 30.789062 -35.0625 31.011719 -33.480469 C 31.234375 -31.917969 31.539062 -30.347656 31.929688 -28.78125 L 29.085938 -28.070312 L 31.914062 -28.847656 L 34.652344 -18.882812 Z M 20.011719 -18.882812 "/></g></g></g><g fill="#000000" fill-opacity="1"><g transform="translate(161.50449, 233.001672)"><g><path d="M 6.566406 2.933594 C 4.453125 2.933594 2.863281 2.398438 1.796875 1.332031 C 0.730469 0.261719 0.195312 -1.328125 0.195312 -3.441406 L 0.195312 -52.074219 C 0.195312 -54.1875 0.730469 -55.777344 1.796875 -56.84375 C 2.863281 -57.914062 4.453125 -58.445312 6.566406 -58.445312 L 29.476562 -58.445312 C 36.378906 -58.445312 41.972656 -56.515625 46.257812 -52.648438 C 50.628906 -48.703125 52.816406 -43.117188 52.816406 -35.890625 C 52.816406 -31.667969 52.019531 -27.992188 50.425781 -24.863281 C 48.808594 -21.691406 46.5625 -19.15625 43.679688 -17.257812 L 42.066406 -19.703125 L 44.335938 -21.558594 C 45.402344 -20.253906 46.375 -18.757812 47.25 -17.0625 L 53.261719 -5.667969 C 54.335938 -3.605469 54.476562 -1.714844 53.671875 -0.0078125 C 53.175781 1.054688 52.378906 1.839844 51.285156 2.347656 C 50.445312 2.738281 49.457031 2.933594 48.320312 2.933594 L 37.765625 2.933594 C 35.070312 2.933594 32.898438 2.417969 31.25 1.394531 C 29.597656 0.367188 28.28125 -1.160156 27.304688 -3.183594 L 22.980469 -12.617188 C 22.699219 -13.214844 22.347656 -13.738281 21.925781 -14.195312 C 21.882812 -14.246094 21.792969 -14.269531 21.660156 -14.269531 L 21.265625 -14.269531 L 21.265625 -17.203125 L 24.199219 -17.203125 L 24.199219 -3.441406 C 24.199219 -1.328125 23.664062 0.261719 22.597656 1.332031 C 21.53125 2.398438 19.941406 2.933594 17.828125 2.933594 Z M 6.566406 -2.933594 L 17.828125 -2.933594 C 18.214844 -2.933594 18.503906 -2.960938 18.699219 -3.011719 L 18.699219 -3.003906 C 18.617188 -2.960938 18.535156 -2.898438 18.453125 -2.816406 C 18.367188 -2.734375 18.304688 -2.652344 18.261719 -2.570312 L 18.253906 -2.566406 C 18.308594 -2.761719 18.335938 -3.054688 18.335938 -3.441406 L 18.335938 -20.132812 L 21.660156 -20.132812 C 23.503906 -20.132812 25.03125 -19.480469 26.238281 -18.175781 C 27.066406 -17.273438 27.757812 -16.238281 28.3125 -15.0625 L 32.585938 -5.730469 C 33.070312 -4.730469 33.65625 -4.015625 34.347656 -3.585938 C 35.046875 -3.148438 36.1875 -2.933594 37.765625 -2.933594 L 48.320312 -2.933594 C 48.59375 -2.933594 48.757812 -2.945312 48.816406 -2.972656 C 48.621094 -2.882812 48.46875 -2.722656 48.363281 -2.496094 C 48.324219 -2.410156 48.304688 -2.347656 48.3125 -2.304688 C 48.292969 -2.453125 48.214844 -2.660156 48.074219 -2.933594 L 42.042969 -14.367188 C 41.351562 -15.699219 40.605469 -16.859375 39.796875 -17.847656 L 37.738281 -20.363281 L 40.453125 -22.152344 C 42.46875 -23.484375 44.054688 -25.273438 45.199219 -27.523438 C 46.367188 -29.816406 46.953125 -32.605469 46.953125 -35.890625 C 46.953125 -41.378906 45.410156 -45.515625 42.328125 -48.292969 C 39.160156 -51.152344 34.875 -52.582031 29.476562 -52.582031 L 6.566406 -52.582031 C 6.179688 -52.582031 5.890625 -52.554688 5.695312 -52.5 L 5.695312 -52.507812 C 5.777344 -52.550781 5.863281 -52.617188 5.945312 -52.699219 C 6.027344 -52.78125 6.089844 -52.863281 6.132812 -52.945312 L 6.140625 -52.945312 C 6.085938 -52.753906 6.058594 -52.460938 6.058594 -52.074219 L 6.058594 -3.441406 C 6.058594 -3.054688 6.085938 -2.761719 6.140625 -2.566406 L 6.132812 -2.570312 C 6.089844 -2.652344 6.027344 -2.734375 5.945312 -2.816406 C 5.863281 -2.898438 5.777344 -2.960938 5.695312 -3.003906 L 5.695312 -3.011719 C 5.890625 -2.960938 6.179688 -2.933594 6.566406 -2.933594 Z M 21.265625 -34.832031 L 27.289062 -34.832031 C 27.628906 -34.832031 27.84375 -34.886719 27.933594 -34.996094 C 28.15625 -35.261719 28.265625 -35.609375 28.265625 -36.046875 C 28.265625 -36.425781 28.199219 -36.6875 28.070312 -36.828125 C 28.070312 -36.824219 28.074219 -36.824219 28.074219 -36.820312 C 28.0625 -36.832031 28.039062 -36.84375 28.003906 -36.855469 C 27.835938 -36.914062 27.597656 -36.945312 27.289062 -36.945312 L 21.265625 -36.945312 L 21.265625 -39.875 L 24.199219 -39.875 L 24.199219 -31.902344 L 21.265625 -31.902344 Z M 18.335938 -28.96875 L 18.335938 -42.808594 L 27.289062 -42.808594 C 29.445312 -42.808594 31.140625 -42.144531 32.371094 -40.8125 C 33.542969 -39.546875 34.128906 -37.957031 34.128906 -36.046875 C 34.128906 -34.1875 33.5625 -32.582031 32.425781 -31.230469 C 31.164062 -29.722656 29.449219 -28.96875 27.289062 -28.96875 Z M 18.335938 -28.96875 "/></g></g></g><g fill="#000000" fill-opacity="1"><g transform="translate(208.183028, 233.001672)"><g><path d="M 11.964844 -55.789062 C 8.597656 -55.789062 6.175781 -56.53125 4.691406 -58.015625 C 3.207031 -59.5 2.460938 -61.925781 2.460938 -65.289062 L 2.460938 -65.914062 C 2.460938 -69.277344 3.207031 -71.703125 4.691406 -73.1875 C 6.175781 -74.671875 8.597656 -75.414062 11.964844 -75.414062 L 12.433594 -75.414062 C 15.8125 -75.414062 18.234375 -74.660156 19.695312 -73.15625 C 21.132812 -71.675781 21.855469 -69.261719 21.855469 -65.914062 L 21.855469 -65.289062 C 21.855469 -61.941406 21.132812 -59.527344 19.695312 -58.046875 C 18.234375 -56.539062 15.8125 -55.789062 12.433594 -55.789062 Z M 11.964844 -61.652344 L 12.433594 -61.652344 C 13.453125 -61.652344 14.273438 -61.734375 14.886719 -61.894531 C 15.222656 -61.984375 15.421875 -62.0625 15.488281 -62.132812 C 15.570312 -62.214844 15.65625 -62.4375 15.75 -62.796875 C 15.910156 -63.425781 15.988281 -64.257812 15.988281 -65.289062 L 15.988281 -65.914062 C 15.988281 -66.945312 15.910156 -67.773438 15.75 -68.402344 C 15.65625 -68.765625 15.570312 -68.988281 15.488281 -69.070312 C 15.421875 -69.136719 15.222656 -69.214844 14.886719 -69.304688 C 14.273438 -69.46875 13.453125 -69.550781 12.433594 -69.550781 L 11.964844 -69.550781 C 10.9375 -69.550781 10.117188 -69.46875 9.492188 -69.304688 C 9.136719 -69.210938 8.917969 -69.121094 8.835938 -69.039062 C 8.753906 -68.957031 8.667969 -68.738281 8.574219 -68.382812 C 8.410156 -67.761719 8.328125 -66.9375 8.328125 -65.914062 L 8.328125 -65.289062 C 8.328125 -64.261719 8.410156 -63.441406 8.574219 -62.820312 C 8.667969 -62.464844 8.753906 -62.242188 8.835938 -62.160156 C 8.917969 -62.078125 9.136719 -61.992188 9.492188 -61.898438 C 10.117188 -61.734375 10.9375 -61.652344 11.964844 -61.652344 Z M 6.253906 2.933594 C 4.296875 2.933594 2.800781 2.410156 1.757812 1.371094 C 0.714844 0.328125 0.195312 -1.171875 0.195312 -3.128906 L 0.195312 -52.386719 C 0.195312 -54.429688 0.734375 -55.960938 1.816406 -56.980469 C 2.851562 -57.957031 4.332031 -58.445312 6.253906 -58.445312 L 18.140625 -58.445312 C 20.148438 -58.445312 21.660156 -57.9375 22.675781 -56.921875 C 23.691406 -55.90625 24.199219 -54.394531 24.199219 -52.386719 L 24.199219 -3.128906 C 24.199219 -1.203125 23.710938 0.277344 22.734375 1.308594 C 21.714844 2.390625 20.179688 2.933594 18.140625 2.933594 Z M 6.253906 -2.933594 L 18.140625 -2.933594 C 18.464844 -2.933594 18.703125 -2.953125 18.847656 -2.996094 C 18.742188 -2.964844 18.617188 -2.871094 18.472656 -2.71875 C 18.359375 -2.597656 18.292969 -2.503906 18.273438 -2.4375 C 18.316406 -2.585938 18.335938 -2.816406 18.335938 -3.128906 L 18.335938 -52.386719 C 18.335938 -52.726562 18.3125 -52.976562 18.269531 -53.136719 C 18.296875 -53.042969 18.382812 -52.921875 18.53125 -52.777344 C 18.675781 -52.628906 18.796875 -52.542969 18.890625 -52.515625 C 18.730469 -52.558594 18.480469 -52.582031 18.140625 -52.582031 L 6.253906 -52.582031 C 5.945312 -52.582031 5.714844 -52.5625 5.5625 -52.519531 C 5.632812 -52.539062 5.722656 -52.605469 5.84375 -52.71875 C 6 -52.863281 6.09375 -52.992188 6.121094 -53.097656 C 6.082031 -52.949219 6.058594 -52.710938 6.058594 -52.386719 L 6.058594 -3.128906 C 6.058594 -2.832031 6.078125 -2.617188 6.121094 -2.480469 C 6.097656 -2.558594 6.023438 -2.65625 5.90625 -2.777344 C 5.785156 -2.898438 5.683594 -2.96875 5.605469 -2.992188 C 5.742188 -2.953125 5.960938 -2.933594 6.253906 -2.933594 Z M 6.253906 -2.933594 "/></g></g></g><g fill="#000000" fill-opacity="1"><g transform="translate(227.182687, 233.001672)"><g><path d="M 21.421875 2.933594 C 19.3125 2.933594 17.71875 2.398438 16.652344 1.332031 C 15.585938 0.261719 15.050781 -1.328125 15.050781 -3.441406 L 15.050781 -21.265625 L 17.984375 -21.265625 L 15.441406 -19.808594 L -2.257812 -50.660156 L -2.28125 -50.707031 C -3.183594 -52.425781 -3.40625 -54 -2.949219 -55.429688 C -2.578125 -56.589844 -1.8125 -57.429688 -0.648438 -57.949219 C 0.0976562 -58.28125 0.992188 -58.445312 2.03125 -58.445312 L 13.371094 -58.445312 C 15.71875 -58.445312 17.476562 -58.253906 18.636719 -57.867188 C 20.25 -57.328125 21.601562 -56.003906 22.699219 -53.894531 L 29.746094 -40.03125 L 27.132812 -38.703125 L 24.542969 -40.078125 L 31.890625 -53.917969 C 32.976562 -56.011719 34.328125 -57.328125 35.9375 -57.867188 C 37.101562 -58.253906 38.828125 -58.445312 41.128906 -58.445312 L 52.074219 -58.445312 C 53.109375 -58.445312 54 -58.28125 54.746094 -57.957031 C 55.886719 -57.453125 56.660156 -56.644531 57.0625 -55.53125 C 57.605469 -54.023438 57.359375 -52.382812 56.332031 -50.605469 L 38.664062 -19.960938 L 36.125 -21.421875 L 39.054688 -21.421875 L 39.054688 -3.441406 C 39.054688 -1.328125 38.523438 0.261719 37.453125 1.332031 C 36.386719 2.398438 34.796875 2.933594 32.683594 2.933594 Z M 21.421875 -2.933594 L 32.683594 -2.933594 C 33.070312 -2.933594 33.363281 -2.960938 33.554688 -3.011719 L 33.554688 -3.003906 C 33.472656 -2.960938 33.390625 -2.898438 33.308594 -2.816406 C 33.226562 -2.734375 33.160156 -2.652344 33.117188 -2.570312 L 33.109375 -2.566406 C 33.164062 -2.761719 33.191406 -3.054688 33.191406 -3.441406 L 33.191406 -22.207031 L 51.257812 -53.542969 C 51.382812 -53.765625 51.457031 -53.925781 51.480469 -54.023438 C 51.453125 -53.894531 51.472656 -53.734375 51.542969 -53.542969 C 51.710938 -53.078125 51.992188 -52.757812 52.390625 -52.585938 C 52.421875 -52.570312 52.449219 -52.558594 52.472656 -52.554688 C 52.46875 -52.554688 52.460938 -52.554688 52.445312 -52.558594 C 52.351562 -52.574219 52.226562 -52.582031 52.074219 -52.582031 L 41.128906 -52.582031 C 39.464844 -52.582031 38.351562 -52.488281 37.792969 -52.300781 C 37.839844 -52.316406 37.871094 -52.332031 37.890625 -52.34375 C 37.859375 -52.324219 37.816406 -52.285156 37.761719 -52.226562 C 37.550781 -52 37.320312 -51.648438 37.070312 -51.167969 L 27.074219 -32.34375 L 17.492188 -51.191406 C 17.25 -51.65625 17.023438 -52 16.8125 -52.226562 C 16.757812 -52.285156 16.71875 -52.324219 16.683594 -52.34375 C 16.703125 -52.332031 16.738281 -52.316406 16.78125 -52.300781 C 16.222656 -52.488281 15.085938 -52.582031 13.371094 -52.582031 L 2.03125 -52.582031 C 1.878906 -52.582031 1.757812 -52.574219 1.667969 -52.558594 C 1.65625 -52.558594 1.648438 -52.554688 1.648438 -52.554688 C 1.675781 -52.5625 1.707031 -52.574219 1.742188 -52.59375 C 2.175781 -52.785156 2.472656 -53.136719 2.636719 -53.644531 C 2.683594 -53.789062 2.699219 -53.902344 2.683594 -53.980469 C 2.707031 -53.855469 2.78125 -53.675781 2.90625 -53.441406 L 0.3125 -52.074219 L 2.855469 -53.53125 L 20.914062 -22.046875 L 20.914062 -3.441406 C 20.914062 -3.054688 20.941406 -2.761719 20.996094 -2.566406 L 20.988281 -2.570312 C 20.945312 -2.652344 20.882812 -2.734375 20.800781 -2.816406 C 20.71875 -2.898438 20.636719 -2.960938 20.550781 -3.003906 L 20.550781 -3.011719 C 20.746094 -2.960938 21.035156 -2.933594 21.421875 -2.933594 Z M 21.421875 -2.933594 "/></g></g></g><g fill="#000000" fill-opacity="1"><g transform="translate(275.894137, 233.001672)"><g><path d="M 6.566406 2.933594 C 4.453125 2.933594 2.863281 2.398438 1.796875 1.332031 C 0.730469 0.261719 0.195312 -1.328125 0.195312 -3.441406 L 0.195312 -52.074219 C 0.195312 -54.1875 0.730469 -55.777344 1.796875 -56.84375 C 2.863281 -57.914062 4.453125 -58.445312 6.566406 -58.445312 L 40.660156 -58.445312 C 42.769531 -58.445312 44.363281 -57.914062 45.429688 -56.84375 C 46.496094 -55.777344 47.03125 -54.1875 47.03125 -52.074219 L 47.03125 -43.316406 C 47.03125 -41.203125 46.496094 -39.613281 45.429688 -38.546875 C 44.363281 -37.476562 42.769531 -36.945312 40.660156 -36.945312 L 21.265625 -36.945312 L 21.265625 -39.875 L 24.199219 -39.875 L 24.199219 -35.8125 L 21.265625 -35.8125 L 21.265625 -38.742188 L 36.28125 -38.742188 C 38.390625 -38.742188 39.984375 -38.207031 41.050781 -37.140625 C 42.117188 -36.074219 42.652344 -34.484375 42.652344 -32.371094 L 42.652344 -23.613281 C 42.652344 -21.5 42.117188 -19.910156 41.050781 -18.84375 C 39.984375 -17.773438 38.390625 -17.242188 36.28125 -17.242188 L 21.265625 -17.242188 L 21.265625 -20.171875 L 24.199219 -20.171875 L 24.199219 -15.714844 L 21.265625 -15.714844 L 21.265625 -18.648438 L 41.207031 -18.648438 C 43.320312 -18.648438 44.910156 -18.113281 45.976562 -17.046875 C 47.042969 -15.980469 47.578125 -14.386719 47.578125 -12.277344 L 47.578125 -3.441406 C 47.578125 -1.328125 47.042969 0.261719 45.976562 1.332031 C 44.910156 2.398438 43.320312 2.933594 41.207031 2.933594 Z M 6.566406 -2.933594 L 41.207031 -2.933594 C 41.59375 -2.933594 41.882812 -2.960938 42.078125 -3.011719 L 42.078125 -3.003906 C 41.996094 -2.960938 41.910156 -2.898438 41.828125 -2.816406 C 41.746094 -2.734375 41.683594 -2.652344 41.640625 -2.570312 L 41.632812 -2.566406 C 41.6875 -2.761719 41.714844 -3.054688 41.714844 -3.441406 L 41.714844 -12.277344 C 41.714844 -12.664062 41.6875 -12.953125 41.632812 -13.148438 L 41.640625 -13.148438 C 41.683594 -13.066406 41.746094 -12.980469 41.828125 -12.898438 C 41.910156 -12.816406 41.996094 -12.753906 42.078125 -12.710938 L 42.078125 -12.703125 C 41.882812 -12.757812 41.59375 -12.785156 41.207031 -12.785156 L 18.335938 -12.785156 L 18.335938 -23.105469 L 36.28125 -23.105469 C 36.667969 -23.105469 36.957031 -23.132812 37.152344 -23.183594 L 37.152344 -23.179688 C 37.070312 -23.132812 36.984375 -23.070312 36.902344 -22.988281 C 36.820312 -22.90625 36.757812 -22.824219 36.714844 -22.742188 L 36.707031 -22.738281 C 36.761719 -22.933594 36.789062 -23.226562 36.789062 -23.613281 L 36.789062 -32.371094 C 36.789062 -32.757812 36.761719 -33.046875 36.707031 -33.242188 L 36.714844 -33.242188 C 36.757812 -33.160156 36.820312 -33.078125 36.902344 -32.996094 C 36.984375 -32.914062 37.070312 -32.847656 37.152344 -32.804688 L 37.152344 -32.796875 C 36.957031 -32.851562 36.667969 -32.878906 36.28125 -32.878906 L 18.335938 -32.878906 L 18.335938 -42.808594 L 40.660156 -42.808594 C 41.046875 -42.808594 41.335938 -42.835938 41.53125 -42.890625 L 41.53125 -42.882812 C 41.445312 -42.839844 41.363281 -42.773438 41.28125 -42.691406 C 41.199219 -42.609375 41.136719 -42.527344 41.09375 -42.445312 L 41.085938 -42.445312 C 41.140625 -42.636719 41.167969 -42.929688 41.167969 -43.316406 L 41.167969 -52.074219 C 41.167969 -52.460938 41.140625 -52.753906 41.085938 -52.945312 L 41.09375 -52.945312 C 41.136719 -52.863281 41.199219 -52.78125 41.28125 -52.699219 C 41.363281 -52.617188 41.445312 -52.550781 41.53125 -52.507812 L 41.53125 -52.5 C 41.335938 -52.554688 41.046875 -52.582031 40.660156 -52.582031 L 6.566406 -52.582031 C 6.179688 -52.582031 5.890625 -52.554688 5.695312 -52.5 L 5.695312 -52.507812 C 5.777344 -52.550781 5.863281 -52.617188 5.945312 -52.699219 C 6.027344 -52.78125 6.089844 -52.863281 6.132812 -52.945312 L 6.140625 -52.945312 C 6.085938 -52.753906 6.058594 -52.460938 6.058594 -52.074219 L 6.058594 -3.441406 C 6.058594 -3.054688 6.085938 -2.761719 6.140625 -2.566406 L 6.132812 -2.570312 C 6.089844 -2.652344 6.027344 -2.734375 5.945312 -2.816406 C 5.863281 -2.898438 5.777344 -2.960938 5.695312 -3.003906 L 5.695312 -3.011719 C 5.890625 -2.960938 6.179688 -2.933594 6.566406 -2.933594 Z M 6.566406 -2.933594 "/></g></g></g><g fill="#000000" fill-opacity="1"><g transform="translate(316.786694, 233.001672)"><g><path d="M 6.566406 2.933594 C 4.453125 2.933594 2.863281 2.398438 1.796875 1.332031 C 0.730469 0.261719 0.195312 -1.328125 0.195312 -3.441406 L 0.195312 -52.074219 C 0.195312 -54.1875 0.730469 -55.777344 1.796875 -56.84375 C 2.863281 -57.914062 4.453125 -58.445312 6.566406 -58.445312 L 29.476562 -58.445312 C 36.378906 -58.445312 41.972656 -56.515625 46.257812 -52.648438 C 50.628906 -48.703125 52.816406 -43.117188 52.816406 -35.890625 C 52.816406 -31.667969 52.019531 -27.992188 50.425781 -24.863281 C 48.808594 -21.691406 46.5625 -19.15625 43.679688 -17.257812 L 42.066406 -19.703125 L 44.335938 -21.558594 C 45.402344 -20.253906 46.375 -18.757812 47.25 -17.0625 L 53.261719 -5.667969 C 54.335938 -3.605469 54.476562 -1.714844 53.671875 -0.0078125 C 53.175781 1.054688 52.378906 1.839844 51.285156 2.347656 C 50.445312 2.738281 49.457031 2.933594 48.320312 2.933594 L 37.765625 2.933594 C 35.070312 2.933594 32.898438 2.417969 31.25 1.394531 C 29.597656 0.367188 28.28125 -1.160156 27.304688 -3.183594 L 22.980469 -12.617188 C 22.699219 -13.214844 22.347656 -13.738281 21.925781 -14.195312 C 21.882812 -14.246094 21.792969 -14.269531 21.660156 -14.269531 L 21.265625 -14.269531 L 21.265625 -17.203125 L 24.199219 -17.203125 L 24.199219 -3.441406 C 24.199219 -1.328125 23.664062 0.261719 22.597656 1.332031 C 21.53125 2.398438 19.941406 2.933594 17.828125 2.933594 Z M 6.566406 -2.933594 L 17.828125 -2.933594 C 18.214844 -2.933594 18.503906 -2.960938 18.699219 -3.011719 L 18.699219 -3.003906 C 18.617188 -2.960938 18.535156 -2.898438 18.453125 -2.816406 C 18.367188 -2.734375 18.304688 -2.652344 18.261719 -2.570312 L 18.253906 -2.566406 C 18.308594 -2.761719 18.335938 -3.054688 18.335938 -3.441406 L 18.335938 -20.132812 L 21.660156 -20.132812 C 23.503906 -20.132812 25.03125 -19.480469 26.238281 -18.175781 C 27.066406 -17.273438 27.757812 -16.238281 28.3125 -15.0625 L 32.585938 -5.730469 C 33.070312 -4.730469 33.65625 -4.015625 34.347656 -3.585938 C 35.046875 -3.148438 36.1875 -2.933594 37.765625 -2.933594 L 48.320312 -2.933594 C 48.59375 -2.933594 48.757812 -2.945312 48.816406 -2.972656 C 48.621094 -2.882812 48.46875 -2.722656 48.363281 -2.496094 C 48.324219 -2.410156 48.304688 -2.347656 48.3125 -2.304688 C 48.292969 -2.453125 48.214844 -2.660156 48.074219 -2.933594 L 42.042969 -14.367188 C 41.351562 -15.699219 40.605469 -16.859375 39.796875 -17.847656 L 37.738281 -20.363281 L 40.453125 -22.152344 C 42.46875 -23.484375 44.054688 -25.273438 45.199219 -27.523438 C 46.367188 -29.816406 46.953125 -32.605469 46.953125 -35.890625 C 46.953125 -41.378906 45.410156 -45.515625 42.328125 -48.292969 C 39.160156 -51.152344 34.875 -52.582031 29.476562 -52.582031 L 6.566406 -52.582031 C 6.179688 -52.582031 5.890625 -52.554688 5.695312 -52.5 L 5.695312 -52.507812 C 5.777344 -52.550781 5.863281 -52.617188 5.945312 -52.699219 C 6.027344 -52.78125 6.089844 -52.863281 6.132812 -52.945312 L 6.140625 -52.945312 C 6.085938 -52.753906 6.058594 -52.460938 6.058594 -52.074219 L 6.058594 -3.441406 C 6.058594 -3.054688 6.085938 -2.761719 6.140625 -2.566406 L 6.132812 -2.570312 C 6.089844 -2.652344 6.027344 -2.734375 5.945312 -2.816406 C 5.863281 -2.898438 5.777344 -2.960938 5.695312 -3.003906 L 5.695312 -3.011719 C 5.890625 -2.960938 6.179688 -2.933594 6.566406 -2.933594 Z M 21.265625 -34.832031 L 27.289062 -34.832031 C 27.628906 -34.832031 27.84375 -34.886719 27.933594 -34.996094 C 28.15625 -35.261719 28.265625 -35.609375 28.265625 -36.046875 C 28.265625 -36.425781 28.199219 -36.6875 28.070312 -36.828125 C 28.070312 -36.824219 28.074219 -36.824219 28.074219 -36.820312 C 28.0625 -36.832031 28.039062 -36.84375 28.003906 -36.855469 C 27.835938 -36.914062 27.597656 -36.945312 27.289062 -36.945312 L 21.265625 -36.945312 L 21.265625 -39.875 L 24.199219 -39.875 L 24.199219 -31.902344 L 21.265625 -31.902344 Z M 18.335938 -28.96875 L 18.335938 -42.808594 L 27.289062 -42.808594 C 29.445312 -42.808594 31.140625 -42.144531 32.371094 -40.8125 C 33.542969 -39.546875 34.128906 -37.957031 34.128906 -36.046875 C 34.128906 -34.1875 33.5625 -32.582031 32.425781 -31.230469 C 31.164062 -29.722656 29.449219 -28.96875 27.289062 -28.96875 Z M 18.335938 -28.96875 "/></g></g></g><g fill="#fefefe" fill-opacity="1"><g transform="translate(65.019857, 233.001672)"><g><path d="M 6.566406 0 C 5.265625 0 4.367188 -0.246094 3.871094 -0.742188 C 3.375 -1.238281 3.128906 -2.136719 3.128906 -3.441406 L 3.128906 -52.074219 C 3.128906 -53.378906 3.375 -54.277344 3.871094 -54.769531 C 4.367188 -55.265625 5.265625 -55.515625 6.566406 -55.515625 L 17.828125 -55.515625 C 19.128906 -55.515625 20.03125 -55.265625 20.523438 -54.769531 C 21.019531 -54.277344 21.265625 -53.378906 21.265625 -52.074219 L 21.265625 -35.890625 L 22.128906 -35.8125 L 22.675781 -35.8125 L 31.433594 -52.386719 C 31.902344 -53.273438 32.34375 -53.9375 32.761719 -54.378906 C 33.179688 -54.824219 33.75 -55.125 34.480469 -55.28125 C 35.210938 -55.4375 36.28125 -55.515625 37.6875 -55.515625 L 48.867188 -55.515625 C 50.121094 -55.515625 50.941406 -55.1875 51.332031 -54.535156 C 51.722656 -53.886719 51.605469 -52.960938 50.980469 -51.761719 L 38.625 -28.304688 C 39.5625 -27.15625 40.421875 -25.828125 41.207031 -24.316406 L 51.761719 -4.300781 C 52.386719 -3.101562 52.503906 -2.085938 52.113281 -1.25 C 51.722656 -0.417969 50.824219 0 49.414062 0 L 38.859375 0 C 36.722656 0 35.144531 -0.234375 34.128906 -0.703125 C 33.113281 -1.171875 32.238281 -2.164062 31.511719 -3.675781 L 25.175781 -16.8125 C 24.8125 -17.59375 24.382812 -18.335938 23.886719 -19.039062 C 23.390625 -19.742188 22.753906 -20.09375 21.972656 -20.09375 L 21.265625 -20.09375 L 21.265625 -3.441406 C 21.265625 -2.136719 21.019531 -1.238281 20.523438 -0.742188 C 20.03125 -0.246094 19.128906 0 17.828125 0 Z M 6.566406 0 "/></g></g></g><g fill="#fefefe" fill-opacity="1"><g transform="translate(111.854771, 233.001672)"><g><path d="M 2.265625 0 C 1.015625 0 0.246094 -0.273438 -0.0390625 -0.820312 C -0.324219 -1.367188 -0.285156 -2.214844 0.078125 -3.363281 L 17.515625 -52.699219 C 17.929688 -53.898438 18.453125 -54.667969 19.078125 -55.007812 C 19.703125 -55.34375 20.589844 -55.515625 21.738281 -55.515625 L 33.308594 -55.515625 C 34.507812 -55.515625 35.417969 -55.332031 36.046875 -54.96875 C 36.671875 -54.601562 37.164062 -53.871094 37.53125 -52.777344 L 55.046875 -3.363281 C 55.828125 -1.121094 55.019531 0 52.621094 0 L 41.675781 0 C 39.640625 0 38.207031 -0.285156 37.375 -0.859375 C 36.539062 -1.433594 35.992188 -2.34375 35.730469 -3.597656 L 34.636719 -7.585938 L 19.9375 -7.585938 L 18.84375 -3.597656 C 18.480469 -2.34375 17.929688 -1.433594 17.203125 -0.859375 C 16.472656 -0.285156 15.144531 0 13.214844 0 Z M 23.847656 -21.816406 L 30.804688 -21.816406 L 29.085938 -28.070312 C 28.667969 -29.738281 28.34375 -31.40625 28.109375 -33.074219 C 27.875 -34.742188 27.730469 -36.125 27.679688 -37.21875 C 27.625 -38.3125 27.601562 -38.859375 27.601562 -38.859375 L 26.820312 -38.859375 C 26.820312 -38.859375 26.804688 -38.3125 26.78125 -37.21875 C 26.753906 -36.125 26.664062 -34.753906 26.507812 -33.113281 C 26.351562 -31.472656 26.035156 -29.816406 25.566406 -28.148438 Z M 23.847656 -21.816406 "/></g></g></g><g fill="#fefefe" fill-opacity="1"><g transform="translate(161.50449, 233.001672)"><g><path d="M 6.566406 0 C 5.265625 0 4.367188 -0.246094 3.871094 -0.742188 C 3.375 -1.238281 3.128906 -2.136719 3.128906 -3.441406 L 3.128906 -52.074219 C 3.128906 -53.378906 3.375 -54.277344 3.871094 -54.769531 C 4.367188 -55.265625 5.265625 -55.515625 6.566406 -55.515625 L 29.476562 -55.515625 C 35.628906 -55.515625 40.566406 -53.832031 44.292969 -50.472656 C 48.019531 -47.109375 49.882812 -42.25 49.882812 -35.890625 C 49.882812 -32.136719 49.195312 -28.902344 47.8125 -26.191406 C 46.429688 -23.484375 44.515625 -21.320312 42.066406 -19.703125 C 43.003906 -18.558594 43.863281 -17.226562 44.644531 -15.714844 L 50.667969 -4.300781 C 51.292969 -3.101562 51.410156 -2.085938 51.019531 -1.25 C 50.628906 -0.417969 49.726562 0 48.320312 0 L 37.765625 0 C 35.628906 0 33.972656 -0.363281 32.800781 -1.09375 C 31.628906 -1.824219 30.675781 -2.945312 29.945312 -4.457031 L 25.644531 -13.839844 C 25.230469 -14.726562 24.707031 -15.507812 24.082031 -16.183594 C 23.457031 -16.863281 22.648438 -17.203125 21.660156 -17.203125 L 21.265625 -17.203125 L 21.265625 -3.441406 C 21.265625 -2.136719 21.019531 -1.238281 20.523438 -0.742188 C 20.03125 -0.246094 19.128906 0 17.828125 0 Z M 21.265625 -31.902344 L 27.289062 -31.902344 C 28.539062 -31.902344 29.503906 -32.304688 30.179688 -33.113281 C 30.859375 -33.921875 31.199219 -34.898438 31.199219 -36.046875 C 31.199219 -37.191406 30.871094 -38.117188 30.21875 -38.820312 C 29.570312 -39.523438 28.589844 -39.875 27.289062 -39.875 L 21.265625 -39.875 Z M 21.265625 -31.902344 "/></g></g></g><g fill="#fefefe" fill-opacity="1"><g transform="translate(208.183028, 233.001672)"><g><path d="M 11.964844 -58.71875 C 9.410156 -58.71875 7.675781 -59.175781 6.761719 -60.089844 C 5.851562 -61 5.394531 -62.734375 5.394531 -65.289062 L 5.394531 -65.914062 C 5.394531 -68.46875 5.851562 -70.199219 6.761719 -71.113281 C 7.675781 -72.023438 9.410156 -72.480469 11.964844 -72.480469 L 12.433594 -72.480469 C 14.984375 -72.480469 16.707031 -72.023438 17.59375 -71.113281 C 18.480469 -70.199219 18.921875 -68.46875 18.921875 -65.914062 L 18.921875 -65.289062 C 18.921875 -62.734375 18.480469 -61 17.59375 -60.089844 C 16.707031 -59.175781 14.984375 -58.71875 12.433594 -58.71875 Z M 6.253906 0 C 5.109375 0 4.300781 -0.234375 3.832031 -0.703125 C 3.363281 -1.171875 3.128906 -1.980469 3.128906 -3.128906 L 3.128906 -52.386719 C 3.128906 -53.585938 3.363281 -54.40625 3.832031 -54.847656 C 4.300781 -55.292969 5.109375 -55.515625 6.253906 -55.515625 L 18.140625 -55.515625 C 19.339844 -55.515625 20.160156 -55.292969 20.601562 -54.847656 C 21.046875 -54.40625 21.265625 -53.585938 21.265625 -52.386719 L 21.265625 -3.128906 C 21.265625 -1.980469 21.046875 -1.171875 20.601562 -0.703125 C 20.160156 -0.234375 19.339844 0 18.140625 0 Z M 6.253906 0 "/></g></g></g><g fill="#fefefe" fill-opacity="1"><g transform="translate(227.182687, 233.001672)"><g><path d="M 21.421875 0 C 20.121094 0 19.222656 -0.246094 18.726562 -0.742188 C 18.230469 -1.238281 17.984375 -2.136719 17.984375 -3.441406 L 17.984375 -21.265625 L 0.3125 -52.074219 C -0.207031 -53.0625 -0.363281 -53.886719 -0.15625 -54.535156 C 0.0507812 -55.1875 0.78125 -55.515625 2.03125 -55.515625 L 13.371094 -55.515625 C 15.402344 -55.515625 16.851562 -55.371094 17.710938 -55.085938 C 18.570312 -54.796875 19.363281 -53.949219 20.09375 -52.542969 L 27.132812 -38.703125 L 34.480469 -52.542969 C 35.210938 -53.949219 36.007812 -54.796875 36.867188 -55.085938 C 37.726562 -55.371094 39.148438 -55.515625 41.128906 -55.515625 L 52.074219 -55.515625 C 53.324219 -55.515625 54.066406 -55.1875 54.300781 -54.535156 C 54.535156 -53.886719 54.367188 -53.0625 53.792969 -52.074219 L 36.125 -21.421875 L 36.125 -3.441406 C 36.125 -2.136719 35.875 -1.238281 35.378906 -0.742188 C 34.886719 -0.246094 33.984375 0 32.683594 0 Z M 21.421875 0 "/></g></g></g><g fill="#fefefe" fill-opacity="1"><g transform="translate(275.894137, 233.001672)"><g><path d="M 6.566406 0 C 5.265625 0 4.367188 -0.246094 3.871094 -0.742188 C 3.375 -1.238281 3.128906 -2.136719 3.128906 -3.441406 L 3.128906 -52.074219 C 3.128906 -53.378906 3.375 -54.277344 3.871094 -54.769531 C 4.367188 -55.265625 5.265625 -55.515625 6.566406 -55.515625 L 40.660156 -55.515625 C 41.960938 -55.515625 42.859375 -55.265625 43.355469 -54.769531 C 43.851562 -54.277344 44.097656 -53.378906 44.097656 -52.074219 L 44.097656 -43.316406 C 44.097656 -42.011719 43.851562 -41.113281 43.355469 -40.621094 C 42.859375 -40.125 41.960938 -39.875 40.660156 -39.875 L 21.265625 -39.875 L 21.265625 -35.8125 L 36.28125 -35.8125 C 37.582031 -35.8125 38.480469 -35.5625 38.976562 -35.066406 C 39.472656 -34.574219 39.71875 -33.671875 39.71875 -32.371094 L 39.71875 -23.613281 C 39.71875 -22.308594 39.472656 -21.410156 38.976562 -20.914062 C 38.480469 -20.421875 37.582031 -20.171875 36.28125 -20.171875 L 21.265625 -20.171875 L 21.265625 -15.714844 L 41.207031 -15.714844 C 42.507812 -15.714844 43.40625 -15.46875 43.902344 -14.972656 C 44.398438 -14.476562 44.644531 -13.578125 44.644531 -12.277344 L 44.644531 -3.441406 C 44.644531 -2.136719 44.398438 -1.238281 43.902344 -0.742188 C 43.40625 -0.246094 42.507812 0 41.207031 0 Z M 6.566406 0 "/></g></g></g><g fill="#fefefe" fill-opacity="1"><g transform="translate(316.786694, 233.001672)"><g><path d="M 6.566406 0 C 5.265625 0 4.367188 -0.246094 3.871094 -0.742188 C 3.375 -1.238281 3.128906 -2.136719 3.128906 -3.441406 L 3.128906 -52.074219 C 3.128906 -53.378906 3.375 -54.277344 3.871094 -54.769531 C 4.367188 -55.265625 5.265625 -55.515625 6.566406 -55.515625 L 29.476562 -55.515625 C 35.628906 -55.515625 40.566406 -53.832031 44.292969 -50.472656 C 48.019531 -47.109375 49.882812 -42.25 49.882812 -35.890625 C 49.882812 -32.136719 49.195312 -28.902344 47.8125 -26.191406 C 46.429688 -23.484375 44.515625 -21.320312 42.066406 -19.703125 C 43.003906 -18.558594 43.863281 -17.226562 44.644531 -15.714844 L 50.667969 -4.300781 C 51.292969 -3.101562 51.410156 -2.085938 51.019531 -1.25 C 50.628906 -0.417969 49.726562 0 48.320312 0 L 37.765625 0 C 35.628906 0 33.972656 -0.363281 32.800781 -1.09375 C 31.628906 -1.824219 30.675781 -2.945312 29.945312 -4.457031 L 25.644531 -13.839844 C 25.230469 -14.726562 24.707031 -15.507812 24.082031 -16.183594 C 23.457031 -16.863281 22.648438 -17.203125 21.660156 -17.203125 L 21.265625 -17.203125 L 21.265625 -3.441406 C 21.265625 -2.136719 21.019531 -1.238281 20.523438 -0.742188 C 20.03125 -0.246094 19.128906 0 17.828125 0 Z M 21.265625 -31.902344 L 27.289062 -31.902344 C 28.539062 -31.902344 29.503906 -32.304688 30.179688 -33.113281 C 30.859375 -33.921875 31.199219 -34.898438 31.199219 -36.046875 C 31.199219 -37.191406 30.871094 -38.117188 30.21875 -38.820312 C 29.570312 -39.523438 28.589844 -39.875 27.289062 -39.875 L 21.265625 -39.875 Z M 21.265625 -31.902344 "/></g></g></g><g fill="#000000" fill-opacity="1"><g transform="translate(90.324443, 297.76525)"><g><path d="M 7.03125 3.140625 C 4.804688 3.140625 3.121094 2.601562 1.984375 1.527344 C 0.800781 0.402344 0.210938 -1.277344 0.210938 -3.515625 L 0.210938 -55.921875 C 0.210938 -58.164062 0.800781 -59.84375 1.984375 -60.964844 C 3.121094 -62.039062 4.804688 -62.578125 7.03125 -62.578125 L 17.246094 -62.578125 C 19.175781 -62.578125 20.699219 -62.34375 21.816406 -61.871094 C 23.300781 -61.242188 24.460938 -59.996094 25.300781 -58.132812 L 37.5 -32.230469 L 34.660156 -30.890625 L 31.824219 -32.238281 L 44.128906 -58.109375 C 45.007812 -59.949219 46.101562 -61.183594 47.410156 -61.8125 C 48.480469 -62.324219 49.949219 -62.578125 51.820312 -62.578125 L 62.621094 -62.578125 C 64.847656 -62.578125 66.53125 -62.039062 67.667969 -60.964844 C 68.851562 -59.84375 69.441406 -58.164062 69.441406 -55.921875 L 69.441406 -3.515625 C 69.441406 -1.277344 68.851562 0.402344 67.667969 1.527344 C 66.53125 2.601562 64.847656 3.140625 62.621094 3.140625 L 50.730469 3.140625 C 48.503906 3.140625 46.820312 2.601562 45.683594 1.527344 C 44.5 0.402344 43.910156 -1.277344 43.910156 -3.515625 L 43.910156 -8.707031 C 43.910156 -10.800781 43.996094 -12.921875 44.171875 -15.070312 C 44.347656 -17.273438 44.773438 -19.925781 45.445312 -23.019531 C 46.105469 -26.058594 47.144531 -29.933594 48.5625 -34.644531 L 51.570312 -33.738281 L 51.570312 -30.597656 L 50.566406 -30.597656 L 50.566406 -33.738281 L 53.5 -32.625 L 52.914062 -31.078125 L 51.539062 -27.402344 C 51.003906 -25.976562 50.488281 -24.601562 49.980469 -23.28125 C 49.457031 -21.910156 49.039062 -20.886719 48.734375 -20.214844 L 45.140625 -11.9375 L 45.121094 -11.898438 C 44.496094 -10.554688 43.671875 -9.527344 42.652344 -8.8125 C 41.554688 -8.042969 40.0625 -7.660156 38.175781 -7.660156 L 30.808594 -7.660156 C 28.960938 -7.660156 27.496094 -8.011719 26.417969 -8.710938 C 25.382812 -9.382812 24.515625 -10.421875 23.8125 -11.824219 L 23.789062 -11.875 L 19.996094 -20.214844 C 19.738281 -20.796875 19.359375 -21.757812 18.863281 -23.105469 C 18.378906 -24.414062 17.882812 -25.824219 17.371094 -27.328125 C 16.859375 -28.828125 16.433594 -30.121094 16.09375 -31.203125 L 15.589844 -32.792969 L 18.585938 -33.738281 L 18.585938 -30.597656 L 17.582031 -30.597656 L 17.582031 -33.738281 L 20.617188 -34.53125 C 21.628906 -30.652344 22.433594 -27.425781 23.027344 -24.859375 C 23.632812 -22.230469 24.066406 -19.996094 24.332031 -18.148438 C 24.59375 -16.308594 24.769531 -14.644531 24.859375 -13.164062 C 24.945312 -11.707031 24.988281 -10.191406 24.988281 -8.621094 L 24.988281 -3.515625 C 24.988281 -1.277344 24.398438 0.402344 23.214844 1.527344 C 22.078125 2.601562 20.394531 3.140625 18.167969 3.140625 Z M 7.03125 -3.140625 L 18.167969 -3.140625 C 18.59375 -3.140625 18.921875 -3.167969 19.140625 -3.226562 L 19.160156 -3.226562 C 19.074219 -3.183594 18.984375 -3.117188 18.894531 -3.03125 C 18.746094 -2.890625 18.660156 -2.777344 18.632812 -2.6875 C 18.683594 -2.867188 18.710938 -3.140625 18.710938 -3.515625 L 18.710938 -8.621094 C 18.710938 -10.066406 18.671875 -11.457031 18.589844 -12.789062 C 18.511719 -14.097656 18.351562 -15.589844 18.113281 -17.261719 C 17.875 -18.933594 17.472656 -20.992188 16.90625 -23.445312 C 16.328125 -25.957031 15.539062 -29.125 14.542969 -32.945312 L 13.515625 -36.878906 L 20.886719 -36.878906 L 22.082031 -33.09375 C 22.410156 -32.054688 22.820312 -30.804688 23.316406 -29.347656 C 23.808594 -27.894531 24.289062 -26.539062 24.753906 -25.28125 C 25.203125 -24.0625 25.523438 -23.238281 25.710938 -22.8125 L 29.480469 -14.527344 L 26.621094 -13.226562 L 29.429688 -14.632812 C 29.554688 -14.382812 29.671875 -14.1875 29.785156 -14.046875 C 29.816406 -14.007812 29.84375 -13.980469 29.863281 -13.960938 C 29.863281 -13.960938 29.855469 -13.964844 29.839844 -13.976562 C 29.789062 -14.011719 29.746094 -14.03125 29.710938 -14.046875 C 29.738281 -14.035156 29.78125 -14.023438 29.84375 -14.011719 C 30.082031 -13.964844 30.402344 -13.9375 30.808594 -13.9375 L 38.175781 -13.9375 C 38.5625 -13.9375 38.867188 -13.964844 39.09375 -14.011719 C 39.144531 -14.023438 39.179688 -14.03125 39.195312 -14.039062 C 39.15625 -14.023438 39.109375 -13.996094 39.054688 -13.957031 C 39.152344 -14.027344 39.277344 -14.226562 39.433594 -14.554688 L 42.277344 -13.226562 L 39.398438 -14.476562 L 43.019531 -22.8125 C 43.269531 -23.371094 43.636719 -24.273438 44.117188 -25.527344 C 44.617188 -26.828125 45.128906 -28.1875 45.65625 -29.609375 L 47.042969 -33.300781 L 48.394531 -36.878906 L 55.792969 -36.878906 L 54.574219 -32.832031 C 53.203125 -28.277344 52.207031 -24.5625 51.582031 -21.6875 C 50.96875 -18.863281 50.585938 -16.492188 50.429688 -14.5625 C 50.269531 -12.582031 50.1875 -10.632812 50.1875 -8.707031 L 50.1875 -3.515625 C 50.1875 -3.140625 50.214844 -2.867188 50.265625 -2.6875 C 50.238281 -2.777344 50.152344 -2.890625 50.003906 -3.03125 C 49.914062 -3.117188 49.824219 -3.183594 49.738281 -3.226562 L 49.757812 -3.226562 C 49.976562 -3.167969 50.304688 -3.140625 50.730469 -3.140625 L 62.621094 -3.140625 C 63.050781 -3.140625 63.375 -3.167969 63.597656 -3.226562 L 63.613281 -3.226562 C 63.527344 -3.183594 63.4375 -3.117188 63.347656 -3.03125 C 63.199219 -2.890625 63.113281 -2.777344 63.085938 -2.6875 C 63.140625 -2.867188 63.164062 -3.140625 63.164062 -3.515625 L 63.164062 -55.921875 C 63.164062 -56.296875 63.140625 -56.574219 63.085938 -56.75 C 63.113281 -56.660156 63.199219 -56.546875 63.347656 -56.40625 C 63.4375 -56.320312 63.527344 -56.257812 63.613281 -56.210938 L 63.597656 -56.210938 C 63.375 -56.269531 63.050781 -56.300781 62.621094 -56.300781 L 51.820312 -56.300781 C 51.28125 -56.300781 50.832031 -56.273438 50.476562 -56.21875 C 50.277344 -56.1875 50.160156 -56.164062 50.121094 -56.144531 C 50.199219 -56.183594 50.265625 -56.226562 50.316406 -56.265625 L 50.316406 -56.269531 C 50.304688 -56.253906 50.289062 -56.238281 50.273438 -56.214844 C 50.128906 -56.039062 49.972656 -55.769531 49.800781 -55.410156 L 34.644531 -23.554688 L 19.574219 -55.554688 C 19.445312 -55.835938 19.328125 -56.039062 19.222656 -56.164062 L 19.21875 -56.171875 C 19.257812 -56.140625 19.308594 -56.113281 19.371094 -56.085938 C 19.035156 -56.230469 18.328125 -56.300781 17.246094 -56.300781 L 7.03125 -56.300781 C 6.601562 -56.300781 6.277344 -56.269531 6.054688 -56.210938 L 6.039062 -56.210938 C 6.125 -56.257812 6.214844 -56.320312 6.304688 -56.40625 C 6.453125 -56.546875 6.539062 -56.660156 6.566406 -56.75 C 6.511719 -56.574219 6.488281 -56.296875 6.488281 -55.921875 L 6.488281 -3.515625 C 6.488281 -3.140625 6.511719 -2.867188 6.566406 -2.6875 C 6.539062 -2.777344 6.453125 -2.890625 6.304688 -3.03125 C 6.214844 -3.117188 6.125 -3.183594 6.039062 -3.226562 L 6.054688 -3.226562 C 6.277344 -3.167969 6.601562 -3.140625 7.03125 -3.140625 Z M 7.03125 -3.140625 "/></g></g></g><g fill="#000000" fill-opacity="1"><g transform="translate(156.789036, 297.76525)"><g><path d="M 2.429688 3.140625 C -0.179688 3.140625 -1.929688 2.285156 -2.824219 0.578125 C -3.535156 -0.78125 -3.5625 -2.492188 -2.90625 -4.550781 L -2.894531 -4.597656 L 15.792969 -57.472656 C 16.503906 -59.511719 17.546875 -60.90625 18.929688 -61.65625 C 20.066406 -62.269531 21.515625 -62.578125 23.273438 -62.578125 L 35.664062 -62.578125 C 37.511719 -62.578125 39.015625 -62.242188 40.175781 -61.566406 C 41.527344 -60.777344 42.523438 -59.421875 43.164062 -57.5 L 61.894531 -4.648438 C 62.675781 -2.410156 62.53125 -0.546875 61.460938 0.9375 C 60.402344 2.40625 58.695312 3.140625 56.339844 3.140625 L 44.621094 3.140625 C 41.792969 3.140625 39.667969 2.648438 38.238281 1.667969 C 36.652344 0.578125 35.636719 -1.050781 35.183594 -3.210938 L 38.257812 -3.851562 L 35.230469 -3.019531 L 34.058594 -7.289062 L 37.085938 -8.121094 L 37.085938 -4.980469 L 21.347656 -4.980469 L 21.347656 -8.121094 L 24.375 -7.289062 L 23.203125 -3.019531 C 22.617188 -1.003906 21.667969 0.519531 20.355469 1.546875 C 19.007812 2.609375 16.9375 3.140625 14.148438 3.140625 Z M 2.429688 -3.140625 L 14.148438 -3.140625 C 14.957031 -3.140625 15.609375 -3.191406 16.101562 -3.300781 C 16.269531 -3.335938 16.402344 -3.375 16.5 -3.414062 C 16.519531 -3.421875 16.53125 -3.429688 16.539062 -3.433594 C 16.523438 -3.421875 16.503906 -3.410156 16.476562 -3.390625 C 16.730469 -3.589844 16.953125 -4.019531 17.148438 -4.683594 L 18.953125 -11.261719 L 39.480469 -11.261719 L 41.3125 -4.585938 L 41.332031 -4.492188 C 41.441406 -3.972656 41.59375 -3.644531 41.796875 -3.507812 C 41.886719 -3.445312 42.105469 -3.378906 42.453125 -3.308594 C 43.015625 -3.195312 43.738281 -3.140625 44.621094 -3.140625 L 56.339844 -3.140625 C 56.628906 -3.140625 56.816406 -3.15625 56.910156 -3.1875 C 56.71875 -3.121094 56.539062 -2.96875 56.367188 -2.734375 C 56.195312 -2.496094 56.109375 -2.265625 56.105469 -2.050781 C 56.105469 -2.136719 56.0625 -2.304688 55.976562 -2.550781 L 37.207031 -55.515625 C 37.101562 -55.828125 37 -56.058594 36.894531 -56.210938 C 36.886719 -56.226562 36.875 -56.238281 36.867188 -56.25 C 36.867188 -56.246094 36.871094 -56.246094 36.875 -56.242188 C 36.910156 -56.207031 36.957031 -56.171875 37.011719 -56.140625 C 36.976562 -56.160156 36.890625 -56.183594 36.742188 -56.214844 C 36.457031 -56.269531 36.097656 -56.300781 35.664062 -56.300781 L 23.273438 -56.300781 C 22.574219 -56.300781 22.125 -56.246094 21.921875 -56.132812 C 22.007812 -56.179688 22.074219 -56.226562 22.125 -56.277344 C 22.132812 -56.285156 22.136719 -56.289062 22.140625 -56.289062 C 22.128906 -56.28125 22.117188 -56.261719 22.105469 -56.242188 C 21.980469 -56.058594 21.847656 -55.769531 21.710938 -55.378906 L 3.042969 -2.554688 L 0.0820312 -3.601562 L 3.074219 -2.648438 C 2.964844 -2.296875 2.902344 -2.03125 2.894531 -1.855469 C 2.902344 -1.964844 2.847656 -2.128906 2.738281 -2.335938 C 2.511719 -2.769531 2.21875 -3.050781 1.859375 -3.175781 C 1.929688 -3.152344 2.121094 -3.140625 2.429688 -3.140625 Z M 25.535156 -26.496094 L 32.984375 -26.496094 L 32.984375 -23.355469 L 29.957031 -22.523438 L 28.105469 -29.257812 L 28.097656 -29.292969 C 27.625 -31.1875 27.253906 -33.078125 26.988281 -34.976562 C 26.722656 -36.855469 26.558594 -38.429688 26.5 -39.699219 L 26.417969 -41.457031 L 29.550781 -41.605469 L 29.550781 -38.46875 L 28.714844 -38.46875 L 28.714844 -41.605469 L 31.851562 -41.53125 L 31.8125 -39.773438 C 31.78125 -38.527344 31.679688 -36.988281 31.503906 -35.15625 C 31.320312 -33.210938 30.949219 -31.253906 30.398438 -29.289062 L 28.5625 -22.535156 L 25.535156 -23.355469 Z M 21.425781 -20.21875 L 24.351562 -30.988281 C 24.804688 -32.59375 25.105469 -34.179688 25.253906 -35.75 C 25.414062 -37.4375 25.507812 -38.828125 25.535156 -39.925781 L 25.648438 -44.746094 L 32.546875 -44.746094 L 32.773438 -40 C 32.824219 -38.921875 32.96875 -37.539062 33.207031 -35.847656 C 33.441406 -34.171875 33.769531 -32.496094 34.1875 -30.816406 L 31.144531 -30.054688 L 34.167969 -30.886719 L 37.105469 -20.21875 Z M 21.425781 -20.21875 "/></g></g></g><g fill="#000000" fill-opacity="1"><g transform="translate(212.538867, 297.76525)"><g><path d="M 20.007812 3.140625 C 17.746094 3.140625 16.042969 2.566406 14.898438 1.425781 C 13.757812 0.28125 13.183594 -1.421875 13.183594 -3.683594 L 13.183594 -42.695312 L 16.324219 -42.695312 L 16.324219 -39.554688 L 4.519531 -39.554688 C 2.257812 -39.554688 0.554688 -40.128906 -0.585938 -41.269531 C -1.730469 -42.414062 -2.300781 -44.117188 -2.300781 -46.378906 L -2.300781 -55.753906 C -2.300781 -58.019531 -1.730469 -59.71875 -0.585938 -60.863281 C 0.554688 -62.007812 2.257812 -62.578125 4.519531 -62.578125 L 47.550781 -62.578125 C 49.8125 -62.578125 51.515625 -62.007812 52.660156 -60.863281 C 53.800781 -59.71875 54.375 -58.019531 54.375 -55.753906 L 54.375 -46.378906 C 54.375 -44.117188 53.800781 -42.414062 52.660156 -41.269531 C 51.515625 -40.128906 49.8125 -39.554688 47.550781 -39.554688 L 35.746094 -39.554688 L 35.746094 -42.695312 L 38.886719 -42.695312 L 38.886719 -3.683594 C 38.886719 -1.421875 38.316406 0.28125 37.171875 1.425781 C 36.027344 2.566406 34.324219 3.140625 32.0625 3.140625 Z M 20.007812 -3.140625 L 32.0625 -3.140625 C 32.476562 -3.140625 32.789062 -3.167969 33 -3.226562 L 32.996094 -3.21875 C 32.910156 -3.171875 32.820312 -3.101562 32.730469 -3.015625 C 32.644531 -2.925781 32.574219 -2.839844 32.527344 -2.75 L 32.519531 -2.75 C 32.578125 -2.957031 32.609375 -3.269531 32.609375 -3.683594 L 32.609375 -45.835938 L 47.550781 -45.835938 C 47.964844 -45.835938 48.277344 -45.863281 48.484375 -45.921875 L 48.484375 -45.914062 C 48.394531 -45.867188 48.308594 -45.800781 48.21875 -45.710938 C 48.132812 -45.621094 48.0625 -45.535156 48.015625 -45.445312 L 48.007812 -45.445312 C 48.066406 -45.652344 48.09375 -45.964844 48.09375 -46.378906 L 48.09375 -55.753906 C 48.09375 -56.171875 48.066406 -56.480469 48.007812 -56.691406 L 48.015625 -56.6875 C 48.0625 -56.601562 48.132812 -56.511719 48.21875 -56.421875 C 48.308594 -56.335938 48.394531 -56.269531 48.484375 -56.21875 L 48.484375 -56.214844 C 48.277344 -56.269531 47.964844 -56.300781 47.550781 -56.300781 L 4.519531 -56.300781 C 4.105469 -56.300781 3.792969 -56.269531 3.585938 -56.214844 L 3.585938 -56.21875 C 3.675781 -56.269531 3.765625 -56.335938 3.851562 -56.421875 C 3.941406 -56.511719 4.007812 -56.601562 4.054688 -56.6875 L 4.0625 -56.691406 C 4.003906 -56.480469 3.976562 -56.171875 3.976562 -55.753906 L 3.976562 -46.378906 C 3.976562 -45.964844 4.003906 -45.652344 4.0625 -45.445312 L 4.054688 -45.445312 C 4.007812 -45.535156 3.941406 -45.621094 3.851562 -45.710938 C 3.765625 -45.800781 3.675781 -45.867188 3.585938 -45.914062 L 3.585938 -45.921875 C 3.792969 -45.863281 4.105469 -45.835938 4.519531 -45.835938 L 19.464844 -45.835938 L 19.464844 -3.683594 C 19.464844 -3.269531 19.492188 -2.957031 19.550781 -2.75 L 19.542969 -2.75 C 19.496094 -2.839844 19.429688 -2.925781 19.339844 -3.015625 C 19.253906 -3.101562 19.164062 -3.171875 19.074219 -3.21875 L 19.074219 -3.226562 C 19.28125 -3.167969 19.59375 -3.140625 20.007812 -3.140625 Z M 20.007812 -3.140625 "/></g></g></g><g fill="#000000" fill-opacity="1"><g transform="translate(261.42456, 297.76525)"><g><path d="M 28.796875 4.394531 C 19.429688 4.394531 12.128906 1.933594 6.890625 -2.988281 C 1.597656 -7.960938 -1.046875 -14.636719 -1.046875 -23.023438 L -1.046875 -36.417969 C -1.046875 -44.800781 1.597656 -51.480469 6.890625 -56.453125 C 12.128906 -61.375 19.429688 -63.835938 28.796875 -63.835938 C 36.09375 -63.835938 42.101562 -62.363281 46.824219 -59.425781 C 51.652344 -56.421875 55.082031 -52.121094 57.117188 -46.53125 C 57.871094 -44.457031 57.863281 -42.65625 57.097656 -41.125 C 56.355469 -39.636719 54.941406 -38.53125 52.851562 -37.804688 L 41.398438 -33.761719 L 41.3125 -33.738281 C 39.207031 -33.125 37.472656 -33.140625 36.109375 -33.792969 C 34.707031 -34.464844 33.605469 -35.863281 32.808594 -37.992188 C 32.371094 -39.125 31.898438 -39.871094 31.398438 -40.234375 C 30.941406 -40.5625 30.074219 -40.726562 28.796875 -40.726562 C 27.65625 -40.726562 26.75 -40.625 26.074219 -40.421875 C 25.707031 -40.3125 25.480469 -40.203125 25.390625 -40.101562 C 24.902344 -39.511719 24.65625 -38.308594 24.65625 -36.5 L 24.65625 -22.9375 C 24.65625 -21.128906 24.902344 -19.929688 25.390625 -19.339844 C 25.480469 -19.234375 25.707031 -19.128906 26.074219 -19.015625 C 26.75 -18.8125 27.65625 -18.710938 28.796875 -18.710938 C 30.058594 -18.710938 30.957031 -18.910156 31.488281 -19.304688 C 32.066406 -19.734375 32.53125 -20.433594 32.875 -21.398438 C 33.675781 -23.539062 34.78125 -24.960938 36.183594 -25.664062 C 37.644531 -26.390625 39.433594 -26.390625 41.550781 -25.652344 L 52.871094 -21.625 C 54.945312 -20.90625 56.355469 -19.800781 57.097656 -18.316406 C 57.855469 -16.800781 57.867188 -14.984375 57.128906 -12.867188 C 55.082031 -7.300781 51.648438 -3.015625 46.824219 -0.0117188 C 42.101562 2.925781 36.09375 4.394531 28.796875 4.394531 Z M 28.796875 -1.882812 C 34.898438 -1.882812 39.800781 -3.039062 43.507812 -5.34375 C 47.109375 -7.585938 49.675781 -10.78125 51.199219 -14.929688 C 51.320312 -15.277344 51.386719 -15.550781 51.394531 -15.742188 L 51.398438 -15.742188 C 51.414062 -15.667969 51.441406 -15.589844 51.480469 -15.507812 C 51.519531 -15.433594 51.558594 -15.371094 51.601562 -15.324219 C 51.609375 -15.316406 51.617188 -15.308594 51.617188 -15.308594 C 51.609375 -15.316406 51.597656 -15.324219 51.582031 -15.335938 C 51.414062 -15.457031 51.140625 -15.582031 50.769531 -15.710938 L 39.488281 -19.722656 C 39.121094 -19.847656 38.839844 -19.917969 38.644531 -19.929688 C 38.628906 -19.929688 38.621094 -19.929688 38.617188 -19.929688 C 38.632812 -19.929688 38.652344 -19.933594 38.671875 -19.9375 C 38.773438 -19.953125 38.882812 -19.992188 38.992188 -20.046875 C 39.097656 -20.097656 39.179688 -20.152344 39.246094 -20.214844 C 39.253906 -20.222656 39.257812 -20.226562 39.257812 -20.230469 C 39.25 -20.214844 39.234375 -20.199219 39.21875 -20.175781 C 39.078125 -19.972656 38.933594 -19.679688 38.789062 -19.289062 C 38.015625 -17.128906 36.832031 -15.453125 35.234375 -14.265625 C 33.589844 -13.042969 31.445312 -12.433594 28.796875 -12.433594 C 24.917969 -12.433594 22.171875 -13.394531 20.570312 -15.320312 C 19.105469 -17.074219 18.375 -19.613281 18.375 -22.9375 L 18.375 -36.5 C 18.375 -39.824219 19.105469 -42.367188 20.570312 -44.121094 C 22.171875 -46.042969 24.917969 -47.007812 28.796875 -47.007812 C 31.429688 -47.007812 33.519531 -46.445312 35.074219 -45.324219 C 36.582031 -44.234375 37.785156 -42.527344 38.6875 -40.199219 C 38.847656 -39.773438 38.992188 -39.460938 39.132812 -39.265625 L 39.132812 -39.25 C 39.050781 -39.328125 38.945312 -39.398438 38.816406 -39.457031 C 38.707031 -39.511719 38.605469 -39.546875 38.511719 -39.558594 C 38.5 -39.5625 38.492188 -39.5625 38.488281 -39.5625 C 38.507812 -39.5625 38.527344 -39.5625 38.554688 -39.5625 C 38.796875 -39.574219 39.128906 -39.640625 39.554688 -39.765625 L 40.433594 -36.75 L 39.390625 -39.710938 L 50.789062 -43.734375 C 51.148438 -43.859375 51.414062 -43.984375 51.582031 -44.101562 C 51.597656 -44.113281 51.609375 -44.125 51.617188 -44.132812 C 51.617188 -44.128906 51.609375 -44.125 51.601562 -44.117188 C 51.558594 -44.066406 51.519531 -44.007812 51.480469 -43.933594 C 51.421875 -43.808594 51.390625 -43.722656 51.394531 -43.671875 C 51.386719 -43.835938 51.328125 -44.074219 51.214844 -44.386719 C 49.675781 -48.617188 47.105469 -51.855469 43.507812 -54.09375 C 39.800781 -56.402344 34.898438 -57.554688 28.796875 -57.554688 C 21.089844 -57.554688 15.21875 -55.664062 11.191406 -51.875 C 7.21875 -48.144531 5.234375 -42.992188 5.234375 -36.417969 L 5.234375 -23.023438 C 5.234375 -16.449219 7.21875 -11.296875 11.191406 -7.5625 C 15.21875 -3.777344 21.089844 -1.882812 28.796875 -1.882812 Z M 28.796875 -1.882812 "/></g></g></g><g fill="#000000" fill-opacity="1"><g transform="translate(313.323781, 297.76525)"><g><path d="M 7.03125 3.140625 C 4.769531 3.140625 3.066406 2.566406 1.925781 1.425781 C 0.78125 0.28125 0.210938 -1.421875 0.210938 -3.683594 L 0.210938 -55.753906 C 0.210938 -58.019531 0.78125 -59.71875 1.925781 -60.863281 C 3.066406 -62.007812 4.769531 -62.578125 7.03125 -62.578125 L 19.085938 -62.578125 C 21.351562 -62.578125 23.050781 -62.007812 24.195312 -60.863281 C 25.339844 -59.71875 25.910156 -58.019531 25.910156 -55.753906 L 25.910156 -38.507812 L 22.769531 -38.507812 L 22.769531 -41.648438 L 35.160156 -41.648438 L 35.160156 -38.507812 L 32.023438 -38.507812 L 32.023438 -55.753906 C 32.023438 -58.019531 32.59375 -59.71875 33.738281 -60.863281 C 34.878906 -62.007812 36.582031 -62.578125 38.84375 -62.578125 L 50.898438 -62.578125 C 53.160156 -62.578125 54.863281 -62.007812 56.007812 -60.863281 C 57.152344 -59.71875 57.722656 -58.019531 57.722656 -55.753906 L 57.722656 -3.683594 C 57.722656 -1.421875 57.152344 0.28125 56.007812 1.425781 C 54.863281 2.566406 53.160156 3.140625 50.898438 3.140625 L 38.84375 3.140625 C 36.582031 3.140625 34.878906 2.566406 33.738281 1.425781 C 32.59375 0.28125 32.023438 -1.421875 32.023438 -3.683594 L 32.023438 -21.765625 L 35.160156 -21.765625 L 35.160156 -18.625 L 22.769531 -18.625 L 22.769531 -21.765625 L 25.910156 -21.765625 L 25.910156 -3.683594 C 25.910156 -1.421875 25.339844 0.28125 24.195312 1.425781 C 23.050781 2.566406 21.351562 3.140625 19.085938 3.140625 Z M 7.03125 -3.140625 L 19.085938 -3.140625 C 19.503906 -3.140625 19.8125 -3.167969 20.023438 -3.226562 L 20.019531 -3.21875 C 19.933594 -3.171875 19.84375 -3.101562 19.753906 -3.015625 C 19.667969 -2.925781 19.601562 -2.839844 19.550781 -2.75 L 19.546875 -2.75 C 19.601562 -2.957031 19.632812 -3.269531 19.632812 -3.683594 L 19.632812 -24.90625 L 38.300781 -24.90625 L 38.300781 -3.683594 C 38.300781 -3.269531 38.328125 -2.957031 38.386719 -2.75 L 38.378906 -2.75 C 38.332031 -2.839844 38.265625 -2.925781 38.175781 -3.015625 C 38.089844 -3.101562 38 -3.171875 37.910156 -3.21875 L 37.910156 -3.226562 C 38.117188 -3.167969 38.429688 -3.140625 38.84375 -3.140625 L 50.898438 -3.140625 C 51.316406 -3.140625 51.625 -3.167969 51.835938 -3.226562 L 51.832031 -3.21875 C 51.746094 -3.171875 51.65625 -3.101562 51.566406 -3.015625 C 51.480469 -2.925781 51.414062 -2.839844 51.363281 -2.75 L 51.359375 -2.75 C 51.414062 -2.957031 51.445312 -3.269531 51.445312 -3.683594 L 51.445312 -55.753906 C 51.445312 -56.171875 51.414062 -56.480469 51.359375 -56.691406 L 51.363281 -56.6875 C 51.414062 -56.601562 51.480469 -56.511719 51.566406 -56.421875 C 51.65625 -56.335938 51.746094 -56.269531 51.832031 -56.21875 L 51.835938 -56.214844 C 51.625 -56.269531 51.316406 -56.300781 50.898438 -56.300781 L 38.84375 -56.300781 C 38.429688 -56.300781 38.117188 -56.269531 37.910156 -56.214844 L 37.910156 -56.21875 C 38 -56.269531 38.089844 -56.335938 38.175781 -56.421875 C 38.265625 -56.511719 38.332031 -56.601562 38.378906 -56.6875 L 38.386719 -56.691406 C 38.328125 -56.480469 38.300781 -56.171875 38.300781 -55.753906 L 38.300781 -35.371094 L 19.632812 -35.371094 L 19.632812 -55.753906 C 19.632812 -56.171875 19.601562 -56.480469 19.546875 -56.691406 L 19.550781 -56.6875 C 19.601562 -56.601562 19.667969 -56.511719 19.753906 -56.421875 C 19.84375 -56.335938 19.933594 -56.269531 20.019531 -56.21875 L 20.023438 -56.214844 C 19.8125 -56.269531 19.503906 -56.300781 19.085938 -56.300781 L 7.03125 -56.300781 C 6.617188 -56.300781 6.304688 -56.269531 6.097656 -56.214844 L 6.097656 -56.21875 C 6.1875 -56.269531 6.277344 -56.335938 6.363281 -56.421875 C 6.453125 -56.511719 6.519531 -56.601562 6.566406 -56.6875 L 6.574219 -56.691406 C 6.515625 -56.480469 6.488281 -56.171875 6.488281 -55.753906 L 6.488281 -3.683594 C 6.488281 -3.269531 6.515625 -2.957031 6.574219 -2.75 L 6.566406 -2.75 C 6.519531 -2.839844 6.453125 -2.925781 6.363281 -3.015625 C 6.277344 -3.101562 6.1875 -3.171875 6.097656 -3.21875 L 6.097656 -3.226562 C 6.304688 -3.167969 6.617188 -3.140625 7.03125 -3.140625 Z M 7.03125 -3.140625 "/></g></g></g><g fill="#fefefe" fill-opacity="1"><g transform="translate(90.324443, 297.76525)"><g><path d="M 7.03125 0 C 5.636719 0 4.675781 -0.25 4.144531 -0.753906 C 3.613281 -1.253906 3.347656 -2.175781 3.347656 -3.515625 L 3.347656 -55.921875 C 3.347656 -57.261719 3.613281 -58.183594 4.144531 -58.683594 C 4.675781 -59.1875 5.636719 -59.4375 7.03125 -59.4375 L 17.246094 -59.4375 C 18.753906 -59.4375 19.867188 -59.285156 20.59375 -58.976562 C 21.320312 -58.671875 21.933594 -57.960938 22.4375 -56.84375 L 34.660156 -30.890625 L 46.964844 -56.761719 C 47.523438 -57.933594 48.125 -58.671875 48.765625 -58.976562 C 49.40625 -59.285156 50.425781 -59.4375 51.820312 -59.4375 L 62.621094 -59.4375 C 64.015625 -59.4375 64.976562 -59.1875 65.507812 -58.683594 C 66.039062 -58.183594 66.304688 -57.261719 66.304688 -55.921875 L 66.304688 -3.515625 C 66.304688 -2.175781 66.039062 -1.253906 65.507812 -0.753906 C 64.976562 -0.25 64.015625 0 62.621094 0 L 50.730469 0 C 49.335938 0 48.375 -0.25 47.84375 -0.753906 C 47.3125 -1.253906 47.050781 -2.175781 47.050781 -3.515625 L 47.050781 -8.707031 C 47.050781 -10.714844 47.132812 -12.753906 47.300781 -14.816406 C 47.46875 -16.882812 47.871094 -19.394531 48.515625 -22.351562 C 49.15625 -25.308594 50.175781 -29.105469 51.570312 -33.738281 L 50.566406 -33.738281 C 50.566406 -33.738281 50.371094 -33.222656 49.980469 -32.1875 C 49.589844 -31.15625 49.128906 -29.929688 48.597656 -28.503906 C 48.066406 -27.082031 47.550781 -25.714844 47.050781 -24.402344 C 46.546875 -23.09375 46.15625 -22.128906 45.875 -21.515625 L 42.277344 -13.226562 C 41.886719 -12.390625 41.410156 -11.777344 40.855469 -11.386719 C 40.296875 -10.996094 39.402344 -10.800781 38.175781 -10.800781 L 30.808594 -10.800781 C 29.578125 -10.800781 28.6875 -10.980469 28.128906 -11.34375 C 27.570312 -11.707031 27.070312 -12.335938 26.621094 -13.226562 L 22.855469 -21.515625 C 22.632812 -22.015625 22.28125 -22.910156 21.808594 -24.195312 C 21.332031 -25.476562 20.84375 -26.859375 20.34375 -28.339844 C 19.839844 -29.816406 19.421875 -31.085938 19.085938 -32.148438 C 18.753906 -33.207031 18.585938 -33.738281 18.585938 -33.738281 L 17.582031 -33.738281 C 18.585938 -29.886719 19.378906 -26.691406 19.964844 -24.152344 C 20.550781 -21.613281 20.972656 -19.464844 21.222656 -17.707031 C 21.472656 -15.949219 21.640625 -14.371094 21.722656 -12.976562 C 21.808594 -11.582031 21.851562 -10.128906 21.851562 -8.621094 L 21.851562 -3.515625 C 21.851562 -2.175781 21.585938 -1.253906 21.054688 -0.753906 C 20.523438 -0.25 19.5625 0 18.167969 0 Z M 7.03125 0 "/></g></g></g><g fill="#fefefe" fill-opacity="1"><g transform="translate(156.789036, 297.76525)"><g><path d="M 2.429688 0 C 1.089844 0 0.265625 -0.292969 -0.0429688 -0.878906 C -0.347656 -1.464844 -0.308594 -2.371094 0.0820312 -3.601562 L 18.753906 -56.425781 C 19.199219 -57.707031 19.757812 -58.53125 20.425781 -58.894531 C 21.097656 -59.257812 22.046875 -59.4375 23.273438 -59.4375 L 35.664062 -59.4375 C 36.945312 -59.4375 37.921875 -59.242188 38.59375 -58.851562 C 39.261719 -58.460938 39.792969 -57.679688 40.183594 -56.507812 L 58.9375 -3.601562 C 59.773438 -1.199219 58.910156 0 56.339844 0 L 44.621094 0 C 42.445312 0 40.910156 -0.308594 40.015625 -0.921875 C 39.125 -1.535156 38.539062 -2.511719 38.257812 -3.851562 L 37.085938 -8.121094 L 21.347656 -8.121094 L 20.175781 -3.851562 C 19.785156 -2.511719 19.199219 -1.535156 18.417969 -0.921875 C 17.636719 -0.308594 16.214844 0 14.148438 0 Z M 25.535156 -23.355469 L 32.984375 -23.355469 L 31.144531 -30.054688 C 30.695312 -31.839844 30.347656 -33.625 30.097656 -35.414062 C 29.84375 -37.199219 29.691406 -38.675781 29.636719 -39.847656 C 29.578125 -41.019531 29.550781 -41.605469 29.550781 -41.605469 L 28.714844 -41.605469 C 28.714844 -41.605469 28.699219 -41.019531 28.671875 -39.847656 C 28.644531 -38.675781 28.546875 -37.210938 28.378906 -35.453125 C 28.210938 -33.695312 27.878906 -31.925781 27.375 -30.136719 Z M 25.535156 -23.355469 "/></g></g></g><g fill="#fefefe" fill-opacity="1"><g transform="translate(212.538867, 297.76525)"><g><path d="M 20.007812 0 C 18.613281 0 17.648438 -0.265625 17.121094 -0.796875 C 16.589844 -1.324219 16.324219 -2.289062 16.324219 -3.683594 L 16.324219 -42.695312 L 4.519531 -42.695312 C 3.125 -42.695312 2.164062 -42.960938 1.632812 -43.492188 C 1.101562 -44.019531 0.835938 -44.984375 0.835938 -46.378906 L 0.835938 -55.753906 C 0.835938 -57.152344 1.101562 -58.113281 1.632812 -58.644531 C 2.164062 -59.171875 3.125 -59.4375 4.519531 -59.4375 L 47.550781 -59.4375 C 48.945312 -59.4375 49.910156 -59.171875 50.4375 -58.644531 C 50.96875 -58.113281 51.234375 -57.152344 51.234375 -55.753906 L 51.234375 -46.378906 C 51.234375 -44.984375 50.96875 -44.019531 50.4375 -43.492188 C 49.910156 -42.960938 48.945312 -42.695312 47.550781 -42.695312 L 35.746094 -42.695312 L 35.746094 -3.683594 C 35.746094 -2.289062 35.480469 -1.324219 34.953125 -0.796875 C 34.421875 -0.265625 33.457031 0 32.0625 0 Z M 20.007812 0 "/></g></g></g><g fill="#fefefe" fill-opacity="1"><g transform="translate(261.42456, 297.76525)"><g><path d="M 28.796875 1.253906 C 20.257812 1.253906 13.671875 -0.921875 9.042969 -5.273438 C 4.410156 -9.628906 2.09375 -15.542969 2.09375 -23.023438 L 2.09375 -36.417969 C 2.09375 -43.894531 4.410156 -49.8125 9.042969 -54.164062 C 13.671875 -58.519531 20.257812 -60.695312 28.796875 -60.695312 C 35.496094 -60.695312 40.953125 -59.382812 45.164062 -56.761719 C 49.378906 -54.136719 52.378906 -50.371094 54.164062 -45.457031 C 54.609375 -44.230469 54.652344 -43.253906 54.289062 -42.527344 C 53.925781 -41.800781 53.105469 -41.214844 51.820312 -40.769531 L 40.433594 -36.75 C 39.097656 -36.359375 38.105469 -36.320312 37.464844 -36.625 C 36.820312 -36.933594 36.25 -37.757812 35.746094 -39.097656 C 35.078125 -40.824219 34.238281 -42.054688 33.234375 -42.777344 C 32.230469 -43.503906 30.753906 -43.867188 28.796875 -43.867188 C 25.894531 -43.867188 23.957031 -43.28125 22.980469 -42.109375 C 22.003906 -40.9375 21.515625 -39.066406 21.515625 -36.5 L 21.515625 -22.9375 C 21.515625 -20.371094 22.003906 -18.5 22.980469 -17.328125 C 23.957031 -16.15625 25.894531 -15.570312 28.796875 -15.570312 C 30.753906 -15.570312 32.273438 -15.976562 33.359375 -16.785156 C 34.449219 -17.59375 35.273438 -18.78125 35.832031 -20.34375 C 36.332031 -21.683594 36.917969 -22.519531 37.589844 -22.855469 C 38.257812 -23.191406 39.234375 -23.132812 40.519531 -22.6875 L 51.820312 -18.667969 C 53.105469 -18.222656 53.925781 -17.636719 54.289062 -16.910156 C 54.652344 -16.183594 54.609375 -15.179688 54.164062 -13.898438 C 52.378906 -9.042969 49.378906 -5.300781 45.164062 -2.679688 C 40.953125 -0.0546875 35.496094 1.253906 28.796875 1.253906 Z M 28.796875 1.253906 "/></g></g></g><g fill="#fefefe" fill-opacity="1"><g transform="translate(313.323781, 297.76525)"><g><path d="M 7.03125 0 C 5.636719 0 4.675781 -0.265625 4.144531 -0.796875 C 3.613281 -1.324219 3.347656 -2.289062 3.347656 -3.683594 L 3.347656 -55.753906 C 3.347656 -57.152344 3.613281 -58.113281 4.144531 -58.644531 C 4.675781 -59.171875 5.636719 -59.4375 7.03125 -59.4375 L 19.085938 -59.4375 C 20.484375 -59.4375 21.445312 -59.171875 21.976562 -58.644531 C 22.507812 -58.113281 22.769531 -57.152344 22.769531 -55.753906 L 22.769531 -38.507812 L 35.160156 -38.507812 L 35.160156 -55.753906 C 35.160156 -57.152344 35.425781 -58.113281 35.957031 -58.644531 C 36.488281 -59.171875 37.449219 -59.4375 38.84375 -59.4375 L 50.898438 -59.4375 C 52.296875 -59.4375 53.257812 -59.171875 53.789062 -58.644531 C 54.316406 -58.113281 54.582031 -57.152344 54.582031 -55.753906 L 54.582031 -3.683594 C 54.582031 -2.289062 54.316406 -1.324219 53.789062 -0.796875 C 53.257812 -0.265625 52.296875 0 50.898438 0 L 38.84375 0 C 37.449219 0 36.488281 -0.265625 35.957031 -0.796875 C 35.425781 -1.324219 35.160156 -2.289062 35.160156 -3.683594 L 35.160156 -21.765625 L 22.769531 -21.765625 L 22.769531 -3.683594 C 22.769531 -2.289062 22.507812 -1.324219 21.976562 -0.796875 C 21.445312 -0.265625 20.484375 0 19.085938 0 Z M 7.03125 0 "/></g></g></g></svg>